<?xml version="1.0" encoding="utf-8"?>
<!-- Generator: Adobe Illustrator 22.1.0, SVG Export Plug-In . SVG Version: 6.00 Build 0)  -->
<svg version="1.1" id="Calque_2_1_" xmlns="http://www.w3.org/2000/svg" xmlns:xlink="http://www.w3.org/1999/xlink" x="0px"
	 y="0px" viewBox="0 0 1920 1080" style="enable-background:new 0 0 1920 1080;" xml:space="preserve">
<style type="text/css">
	.st0{fill:#0C686A;}
	.st1{fill:#EFAD1F;}
	.st2{fill:#EEAD20;}
</style>
<title>logo Rosières</title>
<path class="st0" d="M812,135.6h44.2v195.5H812V135.6z"/>
<path class="st0" d="M902.3,135.6h122.5v37.1h-78.3V212h66.7v37.1h-66.7v45h81.3v37.1H902.3V135.6z M913.8,91.5L937.2,63l51.2,42
	l-19.5,22.1L913.8,91.5z"/>
<path class="st0" d="M1066.7,135.6h70.4c41.5,0,75.5,14.4,75.5,60.9c0,44.9-34,64.3-75.5,64.3h-26.2v70.4h-44.2L1066.7,135.6z
	 M1133.5,225.7c23.3,0,35.7-10,35.7-29.2s-12.5-25.8-35.7-25.8h-22.6v55L1133.5,225.7z M1129,249.2l30.6-28.3l62.4,110.3h-49.5
	L1129,249.2z"/>
<path class="st0" d="M1250.6,135.6h122.5v37.1h-78.3V212h66.7v37.1h-66.7v45h81.3v37.1h-125.5V135.6z"/>
<path class="st0" d="M1402.3,306.5l25.4-30.3c13.9,12.1,31.9,20.4,48,20.4c18.4,0,27.5-7.3,27.5-18.9c0-12.3-11.1-16.3-28.2-23.3
	l-25.4-10.8c-20.3-8.3-39.5-24.9-39.5-53.3c0-32.4,28.9-58.3,69.6-58.3c22.5,0,46.1,8.9,62.9,25.6l-22.3,27.9
	c-12.9-9.9-25.1-15.3-40.6-15.3c-15.2,0-24.9,6.4-24.9,17.5c0,12,12.8,16.4,29.8,23.1l24.9,10.1c23.9,9.6,38.8,25.6,38.8,53.2
	c0,32.5-27.1,60.6-73.7,60.6C1449.3,334.8,1422.3,325.1,1402.3,306.5z"/>
<path class="st0" d="M242.2,392.1h49.9c32,0,57.8,11.4,57.8,46.8c0,34.2-26.1,49.3-56.9,49.3h-18v49.3h-32.8V392.1z M291,462
	c18.1,0,26.6-8,26.6-23.2s-9.7-20.7-27.5-20.7H275V462H291z"/>
<path class="st0" d="M375.1,392.1h52.3c30.8,0,56.1,10.7,56.1,45.3c0,33.4-25.3,47.8-56.1,47.8H408v52.3h-32.9V392.1z M424.8,459.1
	c17.3,0,26.6-7.4,26.6-21.7s-9.3-19.2-26.6-19.2H408V459L424.8,459.1z M421.5,476.5l22.7-21l46.4,82h-36.8L421.5,476.5z"/>
<path class="st0" d="M511.9,392.1h91.1v27.6h-58.2v29.2h49.5v27.5h-49.5v33.5h60.4v27.6h-93.3V392.1z M520.4,359.3l17.4-21.1
	l38.1,31.2l-14.5,16.4L520.4,359.3z"/>
<path class="st0" d="M624.7,519.1l18.9-22.5c10.3,9,23.7,15.2,35.7,15.2c13.7,0,20.4-5.4,20.4-14c0-9.1-8.3-12.1-21-17.3l-18.9-8.1
	c-15.1-6.1-29.3-18.5-29.3-39.6c0-24.1,21.5-43.3,51.8-43.3c17.5,0,34.2,6.8,46.8,19l-16.6,20.7c-9.6-7.3-18.7-11.4-30.2-11.4
	c-11.3,0-18.5,4.7-18.5,13c0,8.9,9.5,12.1,22.2,17.2l18.5,7.5c17.8,7.2,28.8,19,28.8,39.5c0,24.1-20.1,45-54.8,45
	C658.5,540,639.4,532.5,624.7,519.1z"/>
<path class="st0" d="M839,419.6h-40v-27.6h112.8v27.6h-40v117.8H839V419.6z"/>
<path class="st0" d="M934.6,392.1h52.3c30.8,0,56.1,10.7,56.1,45.3c0,33.4-25.3,47.8-56.1,47.8h-19.5v52.3h-32.9V392.1z
	 M984.3,459.1c17.3,0,26.6-7.4,26.6-21.7s-9.3-19.2-26.6-19.2h-16.8V459L984.3,459.1z M980.9,476.5l22.7-21l46.4,82h-36.8
	L980.9,476.5z"/>
<path class="st0" d="M1064.4,464.1c0-47.5,26.8-74.7,66-74.7s66,27.4,66,74.7c0,47.5-26.8,76-66,76S1064.4,511.6,1064.4,464.1z
	 M1162.8,464.1c0-29.1-12.5-46.4-32.3-46.4s-32.3,17.2-32.3,46.4s12.5,47.6,32.3,47.6S1162.8,493.3,1162.8,464.1z"/>
<path class="st0" d="M1244.4,485.6l-43.8-93.5h35.2l13,33.4c3.9,10.9,7.7,21,11.8,32.2h0.9c4.1-11.3,8.3-21.3,12.3-32.2l13-33.4
	h34.3l-43.8,93.5v51.8h-32.9L1244.4,485.6z"/>
<path class="st0" d="M1443.7,519.1l18.9-22.5c10.3,9,23.8,15.2,35.7,15.2c13.7,0,20.4-5.4,20.4-14c0-9.1-8.3-12.1-21-17.3l-18.9-8.1
	c-15.1-6.1-29.3-18.5-29.3-39.6c0-24.1,21.5-43.3,51.8-43.3c17.5,0,34.2,6.8,46.8,19l-16.6,20.7c-9.6-7.3-18.7-11.4-30.2-11.4
	c-11.3,0-18.6,4.7-18.6,13c0,8.9,9.5,12.1,22.2,17.2l18.5,7.5c17.8,7.2,28.8,19,28.8,39.5c0,24.1-20.1,45-54.8,45
	C1477.6,540,1458.4,532.5,1443.7,519.1z"/>
<g>
	<rect x="1306.6" y="573.1" class="st1" width="245.7" height="21"/>
</g>
<rect x="1330.9" y="391.9" class="st0" width="91.2" height="27.8"/>
<rect x="1330.9" y="509.7" class="st0" width="91.2" height="27.8"/>
<rect x="1330.9" y="448.9" class="st2" width="68.7" height="27.8"/>
<path class="st2" d="M495.7,246.3c-0.4-4.4-0.6-9-0.6-13.8c0-26.9,6.4-48.9,17.8-65.5c-11.6-23.4-38.4-31.4-69.3-31.4h-70.4v195.5
	h44.2v-70.4h24.3l37.3,70.4h49.5L484.2,253C488.2,251.2,492.1,248.9,495.7,246.3z M417.3,170.7h22.6c23.3,0,35.7,6.5,35.7,25.8
	s-12.5,29.2-35.7,29.2h-22.6V170.7z"/>
<path class="st0" d="M627.4,232.6c0-39.2-16.8-62.4-43.5-62.4s-43.5,23.1-43.5,62.4s16.8,64,43.5,64S627.4,271.8,627.4,232.6z"/>
<path class="st0" d="M740,221l-25-10.1c-17.1-6.8-29.9-11.1-29.9-23.1c0-11.2,9.7-17.5,25-17.5c15.5,0,27.7,5.4,40.6,15.3l22.3-27.9
	c-16.8-16.8-40.4-25.7-62.9-25.7c-26.9,0-48.7,11.3-60.4,28.4c14.5,17.1,22.9,41.5,22.9,72.1c0,2.6-0.1,5.1-0.2,7.6
	c2.4,1.3,4.9,2.4,7.5,3.5l25.4,10.8c17.1,7,28.2,11,28.2,23.3c0,11.6-9,18.9-27.5,18.9c-13.8,0-29.1-6.1-41.9-15.5
	c-4.8,12.6-12.5,23.9-22.5,33c18.4,13.4,40.6,20.7,63.4,20.8c46.6,0,73.7-28.1,73.7-60.6C778.7,246.5,763.8,230.6,740,221z"/>
</svg>
